<svg width="778" height="984" viewBox="0 0 778 984" fill="none" xmlns="http://www.w3.org/2000/svg">
<path d="M294.839 494.422C294.839 513.29 300.437 531.733 310.924 547.418C321.409 563.103 336.314 575.323 353.747 582.534C371.183 589.745 390.363 591.624 408.866 587.929C427.367 584.233 444.357 575.134 457.685 561.779C471.013 548.423 480.08 531.416 483.735 512.906C487.393 494.397 485.478 475.218 478.23 457.798C470.984 440.378 458.733 425.5 443.027 415.046C427.321 404.592 408.866 399.033 389.999 399.07C364.744 399.122 340.541 409.19 322.7 427.067C304.859 444.943 294.839 469.167 294.839 494.422Z" fill="#FF3D00"/>
<path d="M389.999 792.444C371.141 792.444 352.705 798.036 337.024 808.513C321.343 818.992 309.123 833.884 301.906 851.306C294.689 868.73 292.799 887.903 296.48 906.4C300.159 924.895 309.241 941.885 322.575 955.221C335.91 968.557 352.9 977.638 371.397 981.317C389.895 984.996 409.065 983.109 426.489 975.891C443.913 968.674 458.805 956.452 469.282 940.771C479.759 925.09 485.351 906.655 485.351 887.797C485.351 862.507 475.306 838.254 457.423 820.372C439.542 802.491 415.288 792.444 389.999 792.444Z" fill="#FF3D00"/>
<path d="M682.623 399.069C663.763 399.069 645.327 404.661 629.648 415.14C613.967 425.617 601.745 440.509 594.528 457.933C587.311 475.355 585.423 494.528 589.102 513.025C592.781 531.52 601.863 548.512 615.199 561.846C628.533 575.182 645.524 584.263 664.02 587.942C682.517 591.621 701.69 589.734 719.112 582.517C736.536 575.3 751.427 563.077 761.904 547.396C772.382 531.717 777.975 513.282 777.975 494.422C777.975 469.134 767.929 444.879 750.047 426.998C732.164 409.116 707.911 399.069 682.623 399.069Z" fill="#FF3D00"/>
<path d="M389.999 191.186C408.866 191.225 427.321 185.664 443.027 175.21C458.733 164.756 470.984 149.878 478.23 132.457C485.478 115.037 487.393 95.8587 483.735 77.3499C480.08 58.8411 471.013 41.8322 457.685 28.477C444.357 15.1238 427.367 6.02283 408.866 2.32841C390.363 -1.36794 371.183 0.510148 353.747 7.72142C336.314 14.9327 321.409 27.1529 310.924 42.8378C300.437 58.5227 294.839 76.9658 294.839 95.8336C294.839 121.089 304.859 145.313 322.7 163.19C340.541 181.066 364.744 191.134 389.999 191.186Z" fill="#FF3D00"/>
<path d="M190.806 483.418C190.806 464.558 185.214 446.123 174.737 430.442C164.26 414.762 149.368 402.54 131.944 395.323C114.52 388.106 95.3495 386.219 76.8523 389.898C58.3551 393.576 41.3654 402.658 28.0295 415.994C14.6956 429.328 5.61396 446.318 1.93498 464.815C-1.744 483.312 0.143768 502.485 7.36083 519.907C14.5779 537.331 26.8 552.223 42.4791 562.7C58.1601 573.177 76.5956 578.771 95.4537 578.771C120.743 578.771 144.996 568.724 162.88 550.842C180.761 532.959 190.806 508.706 190.806 483.418Z" fill="#FF3D00"/>
<path d="M606.953 624.324C572.842 590.005 553.696 543.581 553.696 495.193C553.696 446.804 572.842 400.381 606.953 366.062C620.252 352.71 629.295 335.721 632.945 317.235C636.593 298.748 634.682 279.596 627.453 262.193C620.227 244.792 608.005 229.922 592.331 219.462C576.66 209 558.24 203.418 539.395 203.418C520.553 203.418 502.133 209 486.461 219.462C470.788 229.922 458.566 244.792 451.339 262.193C444.11 279.596 442.2 298.748 445.848 317.235C449.498 335.721 458.541 352.71 471.838 366.062C488.972 383.038 502.575 403.243 511.857 425.506C521.137 447.77 525.917 471.652 525.917 495.772C525.917 519.892 521.137 543.774 511.857 566.037C502.575 588.301 488.972 608.504 471.838 625.482C458.541 638.831 449.498 655.823 445.848 674.309C442.2 692.796 444.11 711.948 451.339 729.351C458.566 746.752 470.788 761.622 486.461 772.082C502.133 782.543 520.553 788.126 539.395 788.126C558.24 788.126 576.66 782.543 592.331 772.082C608.005 761.622 620.227 746.752 627.453 729.351C634.682 711.948 636.593 692.796 632.945 674.309C629.295 655.823 620.252 638.831 606.953 625.482V624.324Z" fill="#FF3D00"/>
<path d="M332.483 679.915C332.38 654.88 322.552 630.862 305.074 612.937C270.963 578.617 251.817 532.194 251.817 483.805C251.817 435.417 270.963 388.995 305.074 354.674C318.373 341.325 327.416 324.333 331.064 305.848C334.714 287.362 332.803 268.208 325.574 250.808C318.348 233.405 306.126 218.536 290.452 208.075C274.781 197.615 256.359 192.031 237.516 192.031C218.674 192.031 200.253 197.615 184.58 208.075C168.909 218.536 156.687 233.405 149.458 250.808C142.231 268.208 140.32 287.362 143.969 305.848C147.619 324.333 156.662 341.325 169.959 354.674C187.064 371.648 200.641 391.84 209.906 414.086C219.171 436.332 223.941 460.191 223.941 484.288C223.941 508.387 219.171 532.246 209.906 554.492C200.641 576.737 187.064 596.929 169.959 613.902C158.982 625.051 150.915 638.73 146.474 653.733C142.033 668.735 141.349 684.599 144.488 699.929C147.626 715.257 154.488 729.577 164.469 741.628C174.45 753.678 187.242 763.086 201.718 769.023C216.195 774.96 231.909 777.246 247.476 775.675C263.043 774.103 277.985 768.726 290.983 760.015C303.981 751.306 314.636 739.531 322.007 725.73C329.381 711.929 333.243 696.526 333.255 680.88L332.483 679.915Z" fill="#FF3D00"/>
</svg>
